<?xml version="1.0" encoding="UTF-8" standalone="no"?>
<!-- Generator: Adobe Illustrator 26.2.1, SVG Export Plug-In . SVG Version: 6.00 Build 0)  -->

<svg
   version="1.1"
   id="Layer_1"
   x="0px"
   y="0px"
   viewBox="0 0 10 10"
   xml:space="preserve"
   sodipodi:docname="favicon.svg"
   inkscape:version="1.4.2 (2aeb623e1d, 2025-05-12)"
   width="10"
   height="10"
   xmlns:inkscape="http://www.inkscape.org/namespaces/inkscape"
   xmlns:sodipodi="http://sodipodi.sourceforge.net/DTD/sodipodi-0.dtd"
   xmlns:xlink="http://www.w3.org/1999/xlink"
   xmlns="http://www.w3.org/2000/svg"
   xmlns:svg="http://www.w3.org/2000/svg"><defs
   id="defs12" /><sodipodi:namedview
   id="namedview12"
   pagecolor="#ffffff"
   bordercolor="#000000"
   borderopacity="0.25"
   inkscape:showpageshadow="2"
   inkscape:pageopacity="0.0"
   inkscape:pagecheckerboard="0"
   inkscape:deskcolor="#d1d1d1"
   showgrid="false"
   inkscape:zoom="45.254835"
   inkscape:cx="4.1432037"
   inkscape:cy="2.1102717"
   inkscape:window-width="1864"
   inkscape:window-height="1131"
   inkscape:window-x="0"
   inkscape:window-y="0"
   inkscape:window-maximized="1"
   inkscape:current-layer="g10" />
<style
   type="text/css"
   id="style1">
	.st0{clip-path:url(#SVGID_00000043434013508194048460000004142357940770993321_);fill:#4B4A4A;}
	.st1{clip-path:url(#SVGID_00000043434013508194048460000004142357940770993321_);fill:#84B9E5;}
	.st2{clip-path:url(#SVGID_00000043434013508194048460000004142357940770993321_);fill:#656EB2;}
	.st3{clip-path:url(#SVGID_00000043434013508194048460000004142357940770993321_);fill:#BC4677;}
	.st4{fill:#4B4A4A;}
</style>
<g
   id="g10">
	<defs
   id="defs1">
		<rect
   id="SVGID_1_"
   x="-11"
   y="-55.900002"
   width="595.29999"
   height="841.90002" />
	</defs>
	<clipPath
   id="SVGID_00000180330382316484497780000006448774080709004722_">
		<use
   xlink:href="#SVGID_1_"
   style="overflow:visible"
   id="use1" />
	</clipPath>
	
	
	
	
	
	
	
	
	
	<g
   id="g12"
   inkscape:label="waves"
   transform="matrix(0.02955956,0,0,0.08743523,-1.6050837,-0.39475369)"><path
     style="fill:#84b9e5"
     d="m 392.6,61.7 c 0,0 -45.9,-96.5 -119.6,0 -73.7,96.5 -119.6,0 -119.6,0 h -23.3 c 0,0 45.9,96.5 119.6,0 73.7,-96.5 119.6,0 119.6,0 z"
     clip-path="url(#SVGID_00000180330382316484497780000006448774080709004722_)"
     id="path8" /><path
     style="fill:#656eb2"
     d="m 355.8,61.7 c 0,0 -45.9,-96.5 -119.6,0 -73.7,96.5 -119.6,0 -119.6,0 H 93.4 c 0,0 45.9,96.5 119.6,0 73.7,-96.5 119.6,0 119.6,0 z"
     clip-path="url(#SVGID_00000180330382316484497780000006448774080709004722_)"
     id="path9" /><path
     style="fill:#bc4677"
     d="m 316.6,61.7 c 0,0 -45.9,-96.5 -119.6,0 -73.7,96.5 -119.6,0 -119.6,0 H 54.3 c 0,0 45.9,96.5 119.6,0 73.7,-96.5 119.6,0 119.6,0 z"
     clip-path="url(#SVGID_00000180330382316484497780000006448774080709004722_)"
     id="path10" /></g>
</g>


</svg>
