<?xml version="1.0" encoding="UTF-8" standalone="no"?>
<!-- Generator: Adobe Illustrator 26.2.1, SVG Export Plug-In . SVG Version: 6.00 Build 0)  -->

<svg
   version="1.1"
   id="Layer_1"
   x="0px"
   y="0px"
   viewBox="0 0 466.6619 215.21826"
   xml:space="preserve"
   sodipodi:docname="PaNET_logo.svg"
   inkscape:version="1.4.2 (2aeb623e1d, 2025-05-12)"
   width="466.6619"
   height="215.21826"
   xmlns:inkscape="http://www.inkscape.org/namespaces/inkscape"
   xmlns:sodipodi="http://sodipodi.sourceforge.net/DTD/sodipodi-0.dtd"
   xmlns:xlink="http://www.w3.org/1999/xlink"
   xmlns="http://www.w3.org/2000/svg"
   xmlns:svg="http://www.w3.org/2000/svg"><defs
   id="defs12" /><sodipodi:namedview
   id="namedview12"
   pagecolor="#ffffff"
   bordercolor="#000000"
   borderopacity="0.25"
   inkscape:showpageshadow="2"
   inkscape:pageopacity="0.0"
   inkscape:pagecheckerboard="0"
   inkscape:deskcolor="#d1d1d1"
   showgrid="false"
   inkscape:zoom="1.4142136"
   inkscape:cx="401.9902"
   inkscape:cy="184.90842"
   inkscape:window-width="1920"
   inkscape:window-height="1163"
   inkscape:window-x="0"
   inkscape:window-y="0"
   inkscape:window-maximized="1"
   inkscape:current-layer="g10" />
<style
   type="text/css"
   id="style1">
	.st0{clip-path:url(#SVGID_00000043434013508194048460000004142357940770993321_);fill:#4B4A4A;}
	.st1{clip-path:url(#SVGID_00000043434013508194048460000004142357940770993321_);fill:#84B9E5;}
	.st2{clip-path:url(#SVGID_00000043434013508194048460000004142357940770993321_);fill:#656EB2;}
	.st3{clip-path:url(#SVGID_00000043434013508194048460000004142357940770993321_);fill:#BC4677;}
	.st4{fill:#4B4A4A;}
</style>
<g
   id="g10">
	<defs
   id="defs1">
		<rect
   id="SVGID_1_"
   x="-11"
   y="-55.900002"
   width="595.29999"
   height="841.90002" />
	</defs>
	<clipPath
   id="SVGID_00000180330382316484497780000006448774080709004722_">
		<use
   xlink:href="#SVGID_1_"
   style="overflow:visible"
   id="use1" />
	</clipPath>
	
	
	
	
	
	<g
   id="g13"
   inkscape:label="panet"><path
     style="fill:#4b4a4a"
     d="m 19.1,195.7 v -62.9 c 0,-5.6 1,-8.2 12.9,-9.8 6.7,-1 17.3,-1.8 28.3,-1.8 35.6,0 43.4,9.4 43.4,30.2 0,20.8 -6.7,30.2 -41.6,30.2 -6.7,0 -11.7,-0.4 -16,-0.7 -1.9,-0.1 -3.5,0.3 -3.5,3.1 v 11.7 c 0,6.9 -1.5,8.2 -10.3,8.2 h -2.5 c -9.2,0 -10.7,-1.3 -10.7,-8.2 m 60,-44.3 c 0,-18.3 -5,-22 -18.9,-22 -7,0 -13.3,0.9 -14.7,1.2 -1.5,0.3 -2.9,0.7 -2.9,3.2 V 169 c 0,2.5 1.5,2.9 2.9,3.4 1.3,0.3 7.6,1 14.7,1 13.9,0 18.9,-3.7 18.9,-22"
     clip-path="url(#SVGID_00000180330382316484497780000006448774080709004722_)"
     id="path1" /><path
     style="fill:#4b4a4a"
     d="m 110.6,165.5 c 0,-12.9 13.6,-13.8 32,-13.8 h 14.3 c 1.5,0 3.1,-0.4 3.1,-2.8 v -2 c 0,-7.9 -5.4,-8.3 -16.3,-8.3 -11.3,0 -21.6,1.6 -24,1.8 -2.7,0.4 -3.7,-0.2 -3.7,-3.7 0,-3.3 0.4,-3.8 3.6,-4.4 2.1,-0.4 14.7,-1.7 28.8,-1.7 10.8,0 19.1,1 24.3,3.5 5.4,2.6 7,6.8 7,12.3 v 25.1 c 0,4.7 -0.9,6.9 -11.2,8.5 -6,0.9 -16.9,1.5 -25.4,1.5 -28.2,0 -32.5,-4.8 -32.5,-16 m 45.8,8.2 c 2.1,-0.5 3.6,-1.1 3.6,-3.9 v -8.1 c 0,-2.2 -1.6,-2.7 -3,-2.7 h -13 c -8.9,0 -12.8,0.7 -12.8,7 0,7.5 3.1,8.6 13.8,8.6 4.9,0 9.7,-0.5 11.4,-0.9"
     clip-path="url(#SVGID_00000180330382316484497780000006448774080709004722_)"
     id="path2" /><path
     style="fill:#4b4a4a"
     d="m 217.8,172.1 c 0,6.9 -1.5,8.1 -10.3,8.1 H 205 c -9.4,0 -10.7,-1.5 -10.7,-8.1 v -39 c 0,-5.6 1,-7.6 13.2,-9.7 7.8,-1.3 20.8,-2.2 32.1,-2.2 26.2,0 36.2,6.5 36.2,22.1 V 172 c 0,6.9 -1.5,8.1 -10.3,8.1 h -2.3 c -9.5,0 -10.9,-1.5 -10.9,-8.1 v -29 c 0,-11.4 -6,-13.3 -16.6,-13.3 -5.9,0 -10.7,0.6 -14.5,1.5 -2.2,0.4 -3.5,1.5 -3.5,4.3 v 36.6 z"
     clip-path="url(#SVGID_00000180330382316484497780000006448774080709004722_)"
     id="path3" /><path
     id="path1-5"
     style="fill:#4b4a4a;fill-opacity:1;stroke-width:4.47954"
     d="m 396.8917,102.73 c -9.855,0 -11.64507,0.89591 -11.64507,8.95908 v 47.03518 c 0,16.12634 8.96083,21.50529 33.15036,21.50529 14.33452,0 23.29711,-1.3456 25.98482,-1.79357 4.0316,-0.89591 4.47955,-1.34908 4.47955,-5.38068 0,-4.03159 -0.89592,-4.92749 -4.47955,-4.47954 -4.47953,0.44795 -11.20408,1.34735 -18.81932,1.34735 -8.51112,0 -13.43861,-0.8994 -13.43861,-10.30643 v -24.63747 c 0,-2.68772 0.89765,-4.02461 4.03334,-4.02461 h 23.29012 c 3.58362,0 4.03332,-0.89589 4.03332,-4.47954 0,-3.58362 -0.4497,-4.47954 -4.03332,-4.47954 h -23.29012 c -3.58364,0 -4.03334,-1.3456 -4.03334,-4.03332 v -6.27312 c 0,-8.06317 -2.23628,-8.95908 -12.09128,-8.95908 z m -64.72914,17.0261 c -38.07609,0 -44.7954,11.19362 -44.7954,30.45562 0,20.15794 10.30295,30.01818 47.03517,30.01818 16.12637,0 28.22288,-1.79183 30.91059,-2.23978 4.03159,-0.89589 4.47954,-1.3491 4.47954,-5.3807 0,-4.03156 -0.8959,-4.92749 -4.47954,-4.47954 -4.47954,0.44798 -16.12635,1.79358 -24.63747,1.79358 -15.67839,0 -25.98483,-0.89417 -25.98483,-11.64507 0,-2.68772 1.7953,-3.1409 3.58713,-3.1409 H 362.172 c 12.99067,0 13.88483,-0.44795 13.88483,-8.95908 0,-23.74159 -23.28837,-26.42231 -43.89427,-26.42231 z m -0.44619,8.95885 c 11.6468,0 16.12458,4.47779 16.12458,13.88484 0,3.58363 -1.34734,4.03332 -3.58711,4.03332 h -24.63747 c -2.23979,0 -3.57839,-0.44969 -3.57839,-4.03332 0,-9.855 5.37544,-13.88484 15.67839,-13.88484 z"
     sodipodi:nodetypes="sssscscssssssssssssssscscssssssssssss" /></g>
	
	
	
	<g
   id="g12"
   inkscape:label="waves"><path
     style="fill:#84b9e5"
     d="m 392.6,61.7 c 0,0 -45.9,-96.5 -119.6,0 -73.7,96.5 -119.6,0 -119.6,0 h -23.3 c 0,0 45.9,96.5 119.6,0 73.7,-96.5 119.6,0 119.6,0 z"
     clip-path="url(#SVGID_00000180330382316484497780000006448774080709004722_)"
     id="path8" /><path
     style="fill:#656eb2"
     d="m 355.8,61.7 c 0,0 -45.9,-96.5 -119.6,0 -73.7,96.5 -119.6,0 -119.6,0 H 93.4 c 0,0 45.9,96.5 119.6,0 73.7,-96.5 119.6,0 119.6,0 z"
     clip-path="url(#SVGID_00000180330382316484497780000006448774080709004722_)"
     id="path9" /><path
     style="fill:#bc4677"
     d="m 316.6,61.7 c 0,0 -45.9,-96.5 -119.6,0 -73.7,96.5 -119.6,0 -119.6,0 H 54.3 c 0,0 45.9,96.5 119.6,0 73.7,-96.5 119.6,0 119.6,0 z"
     clip-path="url(#SVGID_00000180330382316484497780000006448774080709004722_)"
     id="path10" /></g>
</g>


</svg>
